<svg width="24" height="24" viewBox="0 0 24 24" fill="none" xmlns="http://www.w3.org/2000/svg">
<path d="M2 12L7 16V13H16V11H7V8L2 12Z" fill="#EB5757"/>
<path d="M13.0012 2.999C11.8187 2.99572 10.6474 3.22711 9.55495 3.67976C8.46254 4.13241 7.47081 4.79733 6.63721 5.636L8.05121 7.05C9.37321 5.728 11.1312 4.999 13.0012 4.999C14.8712 4.999 16.6292 5.728 17.9512 7.05C19.2732 8.372 20.0022 10.13 20.0022 12C20.0022 13.87 19.2732 15.628 17.9512 16.95C16.6292 18.272 14.8712 19.001 13.0012 19.001C11.1312 19.001 9.37321 18.272 8.05121 16.95L6.63721 18.364C8.33621 20.064 10.5962 21.001 13.0012 21.001C15.4062 21.001 17.6662 20.064 19.3652 18.364C21.0652 16.665 22.0022 14.405 22.0022 12C22.0022 9.595 21.0652 7.335 19.3652 5.636C18.5316 4.79733 17.5399 4.13241 16.4475 3.67976C15.3551 3.22711 14.1837 2.99572 13.0012 2.999Z" fill="#EB5757"/>
</svg>
